<svg width="24" height="24" viewBox="0 0 24 24" fill="none" xmlns="http://www.w3.org/2000/svg">
<g id="icons8-vsco 1">
<path id="Vector" d="M11.9924 1.4334C11.9427 1.43421 11.8933 1.44275 11.8462 1.45872C11.0322 1.47074 10.232 1.55804 9.47432 1.74747C9.14569 1.82748 8.82089 1.92859 8.49838 2.04653C8.42111 2.05524 8.34711 2.08258 8.28275 2.12622C7.87046 2.27698 7.47032 2.45161 7.09025 2.65309C6.46636 2.97713 5.88201 3.37948 5.33525 3.82684C5.26206 3.85657 5.19733 3.90391 5.14682 3.96465C5.09574 4.00737 5.04466 4.04999 4.99494 4.0959C4.36198 4.65853 3.7941 5.29622 3.3065 5.99997C3.16302 6.20626 3.03156 6.42115 2.90525 6.63747C2.85468 6.69438 2.81837 6.7625 2.79932 6.83622C2.24503 7.8169 1.84507 8.89774 1.634 10.0397C1.6017 10.1072 1.58565 10.1814 1.58713 10.2562C1.5592 10.4121 1.53242 10.5692 1.51494 10.7353C1.4652 11.1506 1.43994 11.5711 1.43994 12C1.43994 12.4288 1.4652 12.8493 1.51494 13.2647C1.53242 13.4307 1.5592 13.5878 1.58713 13.7437C1.5858 13.8183 1.60185 13.8921 1.634 13.9593C1.84487 15.1008 2.24364 16.1815 2.79744 17.1618C2.81676 17.2364 2.85374 17.3052 2.90525 17.3625C3.0317 17.579 3.16285 17.7944 3.3065 18.0009C3.79462 18.7053 4.3626 19.3377 4.99307 19.9031C5.04263 19.9489 5.09404 19.9908 5.14494 20.0334L5.14588 20.0343C5.1967 20.096 5.26212 20.144 5.33619 20.174H5.33713C5.88344 20.6208 6.46698 21.0231 7.09025 21.3468C7.47032 21.5483 7.87046 21.723 8.28275 21.8737C8.34684 21.9172 8.4205 21.9446 8.49744 21.9534C8.82023 22.0715 9.1454 22.1724 9.47432 22.2525C10.232 22.4419 11.0322 22.5292 11.8462 22.5412C11.9459 22.5749 12.054 22.5749 12.1537 22.5412C12.9677 22.5292 13.7679 22.4419 14.5256 22.2525C14.8542 22.1725 15.179 22.0713 15.5015 21.9534C15.5788 21.9447 15.6528 21.9174 15.7171 21.8737C16.1294 21.723 16.5296 21.5483 16.9096 21.3468C17.5335 21.0228 18.1179 20.6205 18.6646 20.1731C18.7378 20.1434 18.8026 20.096 18.8531 20.0353C18.9047 19.9921 18.9566 19.9495 19.0068 19.9031C19.6373 19.3377 20.2053 18.7053 20.6934 18.0009V18C20.8369 17.7937 20.9683 17.5788 21.0946 17.3625C21.1452 17.3056 21.1815 17.2374 21.2006 17.1637C21.7549 16.183 22.1548 15.1022 22.3659 13.9603C22.3982 13.8927 22.4142 13.8186 22.4128 13.7437C22.4406 13.5878 22.4675 13.4307 22.4849 13.2647C22.5347 12.8493 22.5599 12.4288 22.5599 12C22.5599 11.5711 22.5347 11.1506 22.4849 10.7353C22.4675 10.5692 22.4407 10.4121 22.4128 10.2562C22.4141 10.1817 22.398 10.1079 22.3659 10.0406C22.155 8.89918 21.7562 7.81846 21.2024 6.83809C21.1831 6.76354 21.1461 6.69473 21.0946 6.63747C20.9683 6.42115 20.8369 6.20626 20.6934 5.99997V5.99903C20.2059 5.29554 19.6377 4.65838 19.0049 4.0959C18.9559 4.05059 18.9053 4.00871 18.8549 3.96653C18.8546 3.96622 18.8543 3.9659 18.854 3.96559C18.8032 3.90391 18.7378 3.8559 18.6637 3.8259C18.6634 3.8259 18.6631 3.8259 18.6628 3.8259C18.1165 3.37909 17.5329 2.97681 16.9096 2.65309C16.5296 2.45161 16.1294 2.27698 15.7171 2.12622C15.653 2.08272 15.5794 2.05538 15.5024 2.04653C15.1797 1.92844 14.8545 1.82755 14.5256 1.74747C13.7679 1.55804 12.9677 1.47074 12.1537 1.45872C12.1018 1.44114 12.0472 1.43258 11.9924 1.4334ZM8.39525 2.07653C8.39194 2.07769 8.38921 2.08005 8.38588 2.08122C8.38439 2.08179 8.38273 2.08158 8.38119 2.08215L8.39525 2.07653ZM15.6046 2.07653L15.6187 2.08215C15.6172 2.08158 15.6155 2.08179 15.614 2.08122C15.6107 2.08005 15.608 2.0777 15.6046 2.07653ZM11.5199 2.45809V4.37715C11.0595 4.40628 10.5979 4.43448 10.1634 4.54028C10.1631 4.54028 10.1628 4.54028 10.1624 4.54028C10.0515 4.5675 9.94321 4.60862 9.83338 4.64059L9.17713 2.83965C9.35196 2.78587 9.5201 2.72408 9.704 2.67934C9.70494 2.67903 9.70588 2.67872 9.70682 2.6784C10.2834 2.53426 10.9012 2.48958 11.5199 2.45809ZM12.4799 2.45809C13.0986 2.48958 13.7165 2.53426 14.2931 2.6784C14.294 2.67872 14.2949 2.67903 14.2959 2.67934C14.4798 2.72408 14.6479 2.78587 14.8228 2.83965L14.1665 4.64059C14.0567 4.60862 13.9484 4.5675 13.8374 4.54028C13.8371 4.54028 13.8368 4.54028 13.8365 4.54028C13.402 4.43448 12.9404 4.40628 12.4799 4.37715V2.45809ZM8.27807 3.17434L8.93338 4.97715C8.76528 5.05058 8.59403 5.11295 8.43088 5.20122L8.42994 5.20215C8.17243 5.33774 7.94268 5.52682 7.69963 5.69153C7.60157 5.70445 7.50989 5.74734 7.43713 5.81434L6.22963 4.37622C6.64857 4.05909 7.07174 3.74358 7.5365 3.50247C7.53776 3.50185 7.53901 3.50122 7.54025 3.50059C7.78027 3.37336 8.03041 3.27853 8.27807 3.17434ZM15.7218 3.17434C15.9695 3.27853 16.2196 3.37336 16.4596 3.50059C16.4609 3.50122 16.4621 3.50185 16.4634 3.50247C16.9281 3.74358 17.3513 4.05909 17.7703 4.37622L16.5628 5.81434C16.4899 5.74768 16.3982 5.70512 16.3003 5.69247C16.0571 5.52765 15.8276 5.33782 15.5699 5.20215C15.4064 5.11365 15.235 5.05074 15.0665 4.97715L15.7218 3.17434ZM5.48432 4.9809L6.72275 6.45653C6.34254 6.81906 5.97776 7.20118 5.6765 7.63778C5.64998 7.67588 5.62972 7.71567 5.60432 7.75403L3.94025 6.79309C3.99253 6.71187 4.04038 6.6259 4.09494 6.54747C4.09494 6.54715 4.09494 6.54684 4.09494 6.54653C4.49569 5.96813 4.97392 5.45582 5.48432 4.9809ZM18.5156 4.9809C19.026 5.45582 19.5042 5.96813 19.9049 6.54653C19.9049 6.54684 19.9049 6.54715 19.9049 6.54747C19.9595 6.6259 20.0073 6.71187 20.0596 6.79309L18.3956 7.75403C18.3702 7.71567 18.3499 7.67588 18.3234 7.63778L18.3215 7.63591C18.0206 7.20012 17.6567 6.81845 17.2771 6.45653L18.5156 4.9809ZM11.5199 5.33715V7.22434C10.8194 7.2944 10.1647 7.5194 9.58494 7.85903L8.46932 6.32434C8.60934 6.23778 8.73121 6.12789 8.87807 6.05059C8.87963 6.04966 8.8812 6.04873 8.88275 6.04778C9.12641 5.91563 9.3878 5.80415 9.65432 5.70466C9.69077 5.69538 9.72602 5.68185 9.75932 5.66434C9.9612 5.59025 10.1687 5.52672 10.3912 5.47216L10.3903 5.47309C10.7522 5.38498 11.1375 5.36473 11.5199 5.33715ZM12.4799 5.33715C12.8624 5.36473 13.2477 5.38497 13.6096 5.47309L13.6087 5.47216C13.8314 5.52679 14.0394 5.59012 14.2415 5.66434C14.2754 5.68231 14.3112 5.69616 14.3484 5.70559C14.6139 5.80485 14.8743 5.91609 15.1171 6.04778C15.1187 6.04873 15.1202 6.04966 15.1218 6.05059C15.2687 6.12789 15.3905 6.23778 15.5306 6.32434L14.4149 7.85903C13.8352 7.5194 13.1805 7.2944 12.4799 7.22434V5.33715ZM7.67619 6.86528L8.80963 8.42528C8.30114 8.87968 7.88779 9.43794 7.60869 10.0697L5.78525 9.47528C5.89344 9.20179 6.01236 8.93582 6.15744 8.68684C6.17969 8.65632 6.19825 8.62328 6.21275 8.58841C6.29402 8.4487 6.37653 8.31348 6.46588 8.18528C6.46619 8.18466 6.46651 8.18403 6.46682 8.18341C6.7756 7.7359 7.13927 7.32733 7.54307 6.96841C7.54369 6.96778 7.54432 6.96716 7.54494 6.96653C7.57457 6.93986 7.59149 6.92587 7.61244 6.90841C7.61307 6.90809 7.61369 6.90778 7.61432 6.90747C7.63601 6.89504 7.6567 6.88093 7.67619 6.86528ZM16.3237 6.86528C16.3426 6.88021 16.3627 6.89368 16.3837 6.90559C16.4053 6.92347 16.4238 6.93846 16.4549 6.96653C16.4556 6.96716 16.4562 6.96778 16.4568 6.96841C16.8606 7.32733 17.2243 7.7359 17.5331 8.18341C17.5334 8.18403 17.5337 8.18466 17.534 8.18528C17.6235 8.31369 17.7057 8.44938 17.7871 8.58934C17.8018 8.62491 17.8207 8.65859 17.8434 8.68966C17.8437 8.68997 17.844 8.69028 17.8443 8.69059C17.9876 8.93689 18.1067 9.20178 18.2174 9.47434L16.3912 10.0697C16.1121 9.43794 15.6987 8.87968 15.1903 8.42528L16.3237 6.86528ZM3.47994 7.63497L5.144 8.59497C5.03303 8.81886 4.90996 9.03772 4.82338 9.27184V9.27278C4.79824 9.33712 4.78964 9.40919 4.76619 9.47434C4.72729 9.52404 4.69858 9.58092 4.68169 9.64173C4.6648 9.70254 4.66006 9.76608 4.66775 9.82872C4.63048 9.95102 4.59449 10.0738 4.56369 10.199L2.66994 9.86528C2.84686 9.08083 3.11965 8.33389 3.47994 7.63497ZM20.5199 7.63497C20.8802 8.33389 21.153 9.08083 21.3299 9.86528L19.4381 10.199C19.4073 10.0712 19.3707 9.94549 19.3331 9.82028C19.3457 9.69968 19.3122 9.57876 19.2393 9.48184C19.2151 9.41367 19.2075 9.33926 19.1812 9.27184C19.0921 9.03862 18.9694 8.81832 18.8578 8.59403L20.5199 7.63497ZM11.9437 8.16278C11.9823 8.16749 12.0213 8.16749 12.0599 8.16278C12.8405 8.17476 13.5637 8.41588 14.1637 8.82466C14.2112 8.88133 14.2712 8.92625 14.339 8.95591C14.9184 9.40116 15.3643 10.0074 15.614 10.71C15.6203 10.7862 15.6447 10.8598 15.6853 10.9247C15.7842 11.266 15.8399 11.626 15.8399 12C15.8399 12.3733 15.7839 12.7325 15.6853 13.0734C15.6445 13.1388 15.62 13.2131 15.614 13.29C15.3646 13.9917 14.9193 14.597 14.3409 15.0422C14.2722 15.0721 14.2116 15.1177 14.1637 15.1753C13.5627 15.5847 12.8382 15.8259 12.0562 15.8372C12.0176 15.8324 11.9785 15.8324 11.9399 15.8372C10.2937 15.8119 8.90813 14.7595 8.38588 13.29C8.37957 13.2138 8.35514 13.1401 8.31463 13.0753C8.21569 12.7339 8.15994 12.374 8.15994 12C8.15994 11.6266 8.21601 11.2674 8.31463 10.9265C8.35542 10.8611 8.37986 10.7868 8.38588 10.71C8.90853 9.23933 10.2958 8.1865 11.9437 8.16278ZM18.5006 10.3912C18.5331 10.5231 18.5852 10.6473 18.6093 10.7831C18.6119 10.8203 18.6188 10.8571 18.6299 10.8928C18.6449 10.9935 18.6599 11.0915 18.6703 11.1843C18.6702 11.1856 18.6702 11.1868 18.6703 11.1881C18.7018 11.4541 18.7199 11.7282 18.7199 12C18.7199 12.2718 18.7018 12.5458 18.6703 12.8118C18.6702 12.8131 18.6702 12.8143 18.6703 12.8156C18.6599 12.909 18.645 13.0076 18.6299 13.109C18.619 13.1438 18.6121 13.1796 18.6093 13.2159C18.5851 13.352 18.5332 13.4765 18.5006 13.6087L16.6884 13.019C16.7599 12.6901 16.7999 12.3499 16.7999 12C16.7999 11.6501 16.7599 11.3098 16.6884 10.9809L18.5006 10.3912ZM5.50119 10.3922L7.3115 10.9809C7.23995 11.3098 7.19994 11.6501 7.19994 12C7.19994 12.3499 7.23995 12.6901 7.3115 13.019L5.50119 13.6078C5.46805 13.4761 5.41464 13.3508 5.39057 13.2159C5.38791 13.179 5.38099 13.1425 5.36994 13.1072C5.35503 13.0065 5.33994 12.9084 5.32963 12.8156C5.32963 12.8143 5.32963 12.8131 5.32963 12.8118C5.29807 12.5458 5.27994 12.2718 5.27994 12C5.27994 11.7282 5.29807 11.4541 5.32963 11.1881C5.32963 11.1868 5.32963 11.1856 5.32963 11.1843C5.34001 11.091 5.35492 10.9923 5.36994 10.8909C5.38078 10.8565 5.3877 10.8209 5.39057 10.785C5.41467 10.6498 5.46797 10.5241 5.50119 10.3922ZM2.474 10.8056L4.37244 11.1403C4.34135 11.4208 4.31994 11.7084 4.31994 12C4.31994 12.2915 4.34135 12.5792 4.37244 12.8597L2.474 13.1943C2.4729 13.1844 2.47036 13.1743 2.46932 13.1643C2.46902 13.1618 2.46871 13.1593 2.46838 13.1568C2.42271 12.7778 2.39994 12.3942 2.39994 12C2.39994 11.6058 2.42271 11.2222 2.46838 10.8431C2.46871 10.8406 2.46902 10.8381 2.46932 10.8356C2.47036 10.8257 2.47289 10.8155 2.474 10.8056ZM21.5259 10.8056C21.527 10.8155 21.5295 10.8257 21.5306 10.8356C21.5309 10.8381 21.5312 10.8406 21.5315 10.8431C21.5771 11.2222 21.5999 11.6058 21.5999 12C21.5999 12.3942 21.5772 12.7778 21.5315 13.1568C21.5312 13.1593 21.5309 13.1618 21.5306 13.1643C21.5295 13.1743 21.527 13.1844 21.5259 13.1943L19.6274 12.8597C19.6585 12.5792 19.6799 12.2915 19.6799 12C19.6799 11.7084 19.6585 11.4208 19.6274 11.1403L21.5259 10.8056ZM4.56369 13.8009C4.59456 13.9264 4.63038 14.0496 4.66775 14.1722C4.65248 14.2984 4.68788 14.4255 4.76619 14.5256C4.78964 14.5907 4.79824 14.6628 4.82338 14.7272V14.7281C4.90996 14.9622 5.03303 15.1811 5.144 15.405L3.47994 16.365C3.11965 15.666 2.84686 14.9191 2.66994 14.1347L4.56369 13.8009ZM19.4381 13.8009L21.3299 14.1347C21.153 14.9191 20.8802 15.666 20.5199 16.365L18.8578 15.4059C18.9694 15.1816 19.0921 14.9613 19.1812 14.7281C19.2076 14.6604 19.215 14.5856 19.2393 14.5172C19.3124 14.42 19.3459 14.2987 19.3331 14.1778C19.3705 14.0531 19.4074 13.9281 19.4381 13.8009ZM7.60869 13.9303C7.88779 14.562 8.30114 15.1203 8.80963 15.5747L7.67619 17.1347C7.65723 17.1197 7.63718 17.1063 7.61619 17.0943C7.59459 17.0765 7.57613 17.0615 7.54494 17.0334C7.54432 17.0328 7.54369 17.0322 7.54307 17.0315C7.13927 16.6726 6.7756 16.264 6.46682 15.8165C6.46651 15.8159 6.46619 15.8153 6.46588 15.8147C6.37638 15.6862 6.29415 15.5506 6.21275 15.4106C6.19809 15.375 6.17921 15.3413 6.1565 15.3103C6.1565 15.31 6.1565 15.3097 6.1565 15.3093C6.01223 15.0613 5.89297 14.797 5.78525 14.5247L7.60869 13.9303ZM16.3912 13.9303L18.2174 14.5256C18.1062 14.7992 17.9864 15.065 17.8424 15.3122C17.8201 15.343 17.8016 15.3763 17.7871 15.4115C17.7059 15.5512 17.6234 15.6865 17.534 15.8147C17.5337 15.8153 17.5334 15.8159 17.5331 15.8165C17.2243 16.264 16.8606 16.6726 16.4568 17.0315C16.4562 17.0322 16.4556 17.0328 16.4549 17.0334C16.4253 17.0601 16.4084 17.0741 16.3874 17.0915C16.387 17.0919 16.386 17.092 16.3856 17.0925C16.3639 17.1049 16.3432 17.119 16.3237 17.1347L15.1903 15.5747C15.6987 15.1203 16.1121 14.562 16.3912 13.9303ZM9.58494 16.1409C10.1647 16.4805 10.8194 16.7055 11.5199 16.7756V18.6628C11.1375 18.6352 10.7522 18.615 10.3903 18.5268L10.3912 18.5278C10.1684 18.4731 9.96052 18.4098 9.75838 18.3356C9.72453 18.3176 9.68865 18.3038 9.6515 18.2943C9.38595 18.1951 9.12555 18.0838 8.88275 17.9522C8.8812 17.9512 8.87963 17.9503 8.87807 17.9493C8.73121 17.8721 8.60934 17.7622 8.46932 17.6756L9.58494 16.1409ZM14.4149 16.1409L15.5306 17.6756C15.3905 17.7622 15.2687 17.8721 15.1218 17.9493C15.1202 17.9503 15.1187 17.9512 15.1171 17.9522C14.8735 18.0843 14.6121 18.1958 14.3456 18.2953C14.3091 18.3046 14.2739 18.3181 14.2406 18.3356C14.0387 18.4097 13.8311 18.4732 13.6087 18.5278L13.6096 18.5268C13.2477 18.615 12.8624 18.6352 12.4799 18.6628V16.7756C13.1805 16.7055 13.8352 16.4805 14.4149 16.1409ZM5.60432 16.2459C5.6302 16.285 5.65133 16.3252 5.67838 16.364C5.97928 16.7998 6.34318 17.1815 6.72275 17.5434L5.48432 19.019C4.97275 18.5402 4.49481 18.0305 4.09494 17.4534C4.09494 17.4531 4.09494 17.4528 4.09494 17.4525C4.04038 17.3741 3.99253 17.2881 3.94025 17.2068L5.60432 16.2459ZM18.3956 16.2459L20.0596 17.2068C20.0073 17.2881 19.9595 17.374 19.9049 17.4525C19.9049 17.4528 19.9049 17.4531 19.9049 17.4534C19.5051 18.0305 19.0271 18.5402 18.5156 19.019L17.2771 17.5434C17.6567 17.1815 18.0206 16.7998 18.3215 16.364L18.3234 16.3622C18.3499 16.3241 18.3702 16.2843 18.3956 16.2459ZM7.43713 18.1856C7.50989 18.2526 7.60157 18.2955 7.69963 18.3084C7.94268 18.4731 8.17243 18.6622 8.42994 18.7978L8.43088 18.7987C8.59403 18.887 8.76528 18.9494 8.93338 19.0228L8.27807 20.8256C8.03041 20.7214 7.78027 20.6266 7.54025 20.4993C7.53901 20.4987 7.53776 20.4981 7.5365 20.4975C7.07172 20.2563 6.64857 19.9409 6.22963 19.6237L7.43713 18.1856ZM16.5628 18.1865L17.7703 19.6237C17.3513 19.9409 16.9281 20.2564 16.4634 20.4975C16.4621 20.4981 16.4609 20.4987 16.4596 20.4993C16.2196 20.6266 15.9695 20.7214 15.7218 20.8256L15.0665 19.0228C15.2346 18.9494 15.4059 18.887 15.569 18.7987L15.5699 18.7978C15.8275 18.6622 16.0572 18.4731 16.3003 18.3084C16.3982 18.2958 16.4899 18.2532 16.5628 18.1865ZM9.83338 19.3593C9.94321 19.3913 10.0515 19.4324 10.1624 19.4597C10.1628 19.4597 10.1631 19.4597 10.1634 19.4597C10.5979 19.5655 11.0595 19.5937 11.5199 19.6228V21.5418C10.9012 21.5104 10.2834 21.4657 9.70682 21.3215C9.70588 21.3212 9.70494 21.3209 9.704 21.3206C9.5201 21.2759 9.35196 21.2141 9.17713 21.1603L9.83338 19.3593ZM14.1665 19.3593L14.8228 21.1603C14.6479 21.2141 14.4798 21.2759 14.2959 21.3206C14.2949 21.3209 14.294 21.3212 14.2931 21.3215C13.7165 21.4656 13.0986 21.5104 12.4799 21.5418V19.6228C12.9404 19.5937 13.402 19.5655 13.8365 19.4597C13.8368 19.4597 13.8371 19.4597 13.8374 19.4597C13.9484 19.4324 14.0567 19.3913 14.1665 19.3593ZM8.38119 21.9178C8.38268 21.9184 8.38434 21.9181 8.38588 21.9187C8.38919 21.9199 8.39192 21.9222 8.39525 21.9234L8.38119 21.9178ZM15.6187 21.9178L15.6046 21.9234C15.608 21.9223 15.6107 21.9199 15.614 21.9187C15.6155 21.9182 15.6172 21.9183 15.6187 21.9178Z" fill="#FEFAFA"/>
</g>
</svg>
