<svg width="24" height="24" viewBox="0 0 24 24" fill="none" xmlns="http://www.w3.org/2000/svg">
<g id="icons8-pinterest 1" clip-path="url(#clip0_451_303)">
<path id="Vector" d="M12 0.959961C5.90842 0.959961 0.959961 5.90842 0.959961 12C0.959961 18.0915 5.90842 23.04 12 23.04C18.0915 23.04 23.04 18.0915 23.04 12C23.04 5.90842 18.0915 0.959961 12 0.959961ZM12 1.91996C17.5727 1.91996 22.08 6.42724 22.08 12C22.08 17.5727 17.5727 22.08 12 22.08C10.9806 22.08 9.99726 21.9274 9.07027 21.6468C9.48319 20.9565 10.0163 19.9697 10.2281 19.155C10.3539 18.6719 10.8712 16.7015 10.8712 16.7015C11.2074 17.3433 12.1897 17.8865 13.2356 17.8865C16.3479 17.8865 18.5915 15.0243 18.5915 11.4675C18.5915 8.0575 15.809 5.50684 12.2287 5.50684C7.77444 5.50684 5.41027 8.49636 5.41027 11.7515C5.41027 13.2654 6.21544 15.1498 7.50465 15.75C7.69993 15.8409 7.8048 15.8015 7.84965 15.6121C7.88418 15.4685 8.05833 14.768 8.13652 14.4421C8.16153 14.3382 8.14942 14.2483 8.06527 14.1459C7.63858 13.6283 7.29652 12.6776 7.29652 11.7909C7.29652 9.51454 9.01986 7.31152 11.9559 7.31152C14.491 7.31152 16.2665 9.03974 16.2665 11.5106C16.2665 14.3021 14.857 16.2365 13.0228 16.2365C12.0098 16.2365 11.2513 15.3985 11.4946 14.3709C11.7864 13.1444 12.3496 11.8209 12.3496 10.935C12.3496 10.1427 11.9245 9.48184 11.0437 9.48184C10.0081 9.48184 9.17621 10.5525 9.17621 11.9878C9.17621 12.9011 9.48559 13.5196 9.48559 13.5196C9.48559 13.5196 8.46262 17.8447 8.27527 18.6496C8.08752 19.454 8.13781 20.5374 8.21527 21.344C4.52211 19.8491 1.91996 16.2332 1.91996 12C1.91996 6.42724 6.42724 1.91996 12 1.91996Z" fill="#FEFAFA"/>
</g>
<defs>
<clipPath id="clip0_451_303">
<rect width="24" height="24" fill="white"/>
</clipPath>
</defs>
</svg>
